<svg xmlns="http://www.w3.org/2000/svg" viewBox="0 0 792 792"><defs><style>.cls-1{fill:#252525;}</style></defs><g id="Layer_3" data-name="Layer 3"><path class="cls-1" d="M222.91,157.68a17.36,17.36,0,1,1-17.36-17.36A17.36,17.36,0,0,1,222.91,157.68ZM205.55,217.8a17.36,17.36,0,1,0,17.36,17.36A17.36,17.36,0,0,0,205.55,217.8Zm352.12,76.7A17.36,17.36,0,1,0,575,311.86,17.36,17.36,0,0,0,557.67,294.5ZM351.54,324.3H515.36V299.41H351.54ZM459.83,221.64H248.37v24.89H459.83Zm0-77.77H248.37v24.89H459.83Zm228.38,495.8a57.6,57.6,0,1,1-70-56.2v-55a17.74,17.74,0,0,0-17.72-17.72h-69.7a42.67,42.67,0,0,1-42.61-42.62V391.68H393.19V583.4a57.64,57.64,0,1,1-24.89.14V391.68H273.9v76.47a42.67,42.67,0,0,1-42.61,42.62h-69.7a17.74,17.74,0,0,0-17.72,17.72v55a57.6,57.6,0,1,1-24.89,0v-55a42.66,42.66,0,0,1,42.61-42.61h69.7A17.74,17.74,0,0,0,249,468.15V391.68H159.86a42.65,42.65,0,0,1-42.61-42.61V112.17a42.65,42.65,0,0,1,42.61-42.61H601.63a42.66,42.66,0,0,1,42.61,42.61v236.9a42.66,42.66,0,0,1-42.61,42.61H513v76.47a17.74,17.74,0,0,0,17.72,17.73h69.7a42.66,42.66,0,0,1,42.61,42.61v55A57.67,57.67,0,0,1,688.21,639.67ZM131.42,607a32.71,32.71,0,1,0,32.71,32.71A32.75,32.75,0,0,0,131.42,607ZM381,607a32.71,32.71,0,1,0,32.71,32.71A32.76,32.76,0,0,0,381,607ZM159.86,366.79H601.63a17.74,17.74,0,0,0,17.72-17.72V112.17a17.74,17.74,0,0,0-17.72-17.72H159.86a17.74,17.74,0,0,0-17.72,17.72v236.9A17.74,17.74,0,0,0,159.86,366.79ZM663.32,639.67a32.71,32.71,0,1,0-32.7,32.71A32.75,32.75,0,0,0,663.32,639.67Z"/></g></svg>