<svg xmlns="http://www.w3.org/2000/svg" viewBox="0 0 792 792"><defs><style>.cls-1{fill:#252525;}</style></defs><g id="Layer_3" data-name="Layer 3"><path class="cls-1" d="M677.07,631.17a52.59,52.59,0,0,0-28.87,8.62L460,448.45a88.77,88.77,0,0,0,17.54-40.94c.13-.83.16-1.67.26-2.5h90.94a52.93,52.93,0,1,0,0-24.89H477.52a88.88,88.88,0,0,0-16.22-39c-.37-.51-.8-1-1.19-1.46L648.39,148.18a53.09,53.09,0,1,0-17.15-18.05l-188.8,192a88.85,88.85,0,0,0-39.6-16.49c-1.17-.18-2.33-.31-3.49-.45V210.94a52.93,52.93,0,1,0-24.89,0v94.89a89.48,89.48,0,0,0-39.11,16.92L142.63,130a53.05,53.05,0,1,0-17.11,18.09L317.77,340.37a88.77,88.77,0,0,0-16.82,40H205.28a52.93,52.93,0,1,0,0,24.89h95.37a89.5,89.5,0,0,0,17.29,42.4L125.72,639.86a53.05,53.05,0,1,0,17,18.17L335.51,465.27a88.64,88.64,0,0,0,39.19,16.79v92.37a52.93,52.93,0,1,0,24.89,0V482.64A88.83,88.83,0,0,0,442.09,466l.14-.12L631.12,657.93a52.89,52.89,0,1,0,46-26.76ZM620.15,364.53a28,28,0,1,1-28,28A28.06,28.06,0,0,1,620.15,364.53ZM153.9,420.84a28,28,0,1,1,28-28A28.06,28.06,0,0,1,153.9,420.84ZM677.07,75.73a28,28,0,1,1-28,28A28.07,28.07,0,0,1,677.07,75.73Zm-318.2,83.83a28,28,0,1,1,28,28A28.06,28.06,0,0,1,358.87,159.56ZM96.74,131.8a28,28,0,1,1,28-28A28.06,28.06,0,0,1,96.74,131.8Zm0,580.33a28,28,0,1,1,28-28A28.06,28.06,0,0,1,96.74,712.13Zm318.44-86.32a28,28,0,1,1-28-28A28.06,28.06,0,0,1,415.18,625.81ZM379.45,457.63a64.44,64.44,0,1,1,47.92-11.72A64.52,64.52,0,0,1,379.45,457.63Zm297.62,254.5a28,28,0,1,1,28-28A28.07,28.07,0,0,1,677.07,712.13Z"/></g></svg>