<svg id="Layer_1" data-name="Layer 1" xmlns="http://www.w3.org/2000/svg" viewBox="0 0 240 240"><defs><style>.cls-1{fill:#fff;}</style></defs><path class="cls-1" d="M56.63,39.55a6,6,0,0,0,1.46-.86v.05a98.83,98.83,0,0,1,23-13.26,101.19,101.19,0,0,1,25.52-6.89h.09a5.34,5.34,0,0,0,1.43-.39A6.34,6.34,0,0,0,105.08,6V6A116.16,116.16,0,0,0,50.32,28.61v0a6.3,6.3,0,0,0-2,7.43A6.42,6.42,0,0,0,56.63,39.55Z"/><path class="cls-1" d="M103.83,71.05A6.41,6.41,0,0,1,102,58.5a63.27,63.27,0,0,1,23.3-2.39,6.41,6.41,0,1,1-1.07,12.77,50.52,50.52,0,0,0-18.58,1.9A6.15,6.15,0,0,1,103.83,71.05Z"/><path class="cls-1" d="M136.37,6.17v0L135,6l0,.09a5.63,5.63,0,0,0-3.51.69,6.24,6.24,0,0,0-2.5,8.56,6.32,6.32,0,0,0,4.39,3.24v0a104.26,104.26,0,0,1,25,6.55,6.69,6.69,0,0,1,3.88,3.64,6.35,6.35,0,0,1-3.39,8.32,7.33,7.33,0,0,1-4.69.09c-7.21-2.64-14.72-5.08-22.41-6a87.72,87.72,0,0,0-23.29,0,88.76,88.76,0,0,0-22.47,6A6.36,6.36,0,0,0,90.8,48.92,76.68,76.68,0,0,1,110,43.78a73.94,73.94,0,0,1,19.94.06A72.25,72.25,0,0,1,149.23,49l0-.06a80.21,80.21,0,0,1,17.28,10,69.64,69.64,0,0,1,8.23,7.42,12.59,12.59,0,0,1,1.68,2.74c1.35,3.24.09,7-3.21,8.11s-5.62-.81-7-1.84c-1.22-.95-3-2.42-4.45-3.72l-.7-.61c-.26-.23-.8-.65-.8-.65a64.2,64.2,0,0,0-8-5.68,6.41,6.41,0,1,0-6.54,11A50.63,50.63,0,0,1,155.14,83l1.12,1.09,1.64,1.59a50.86,50.86,0,1,1-88.79,33.84c0-1.38.06-2.74.18-4.09.06-.84.15-1.71.27-2.55.33-2.56.6-4.33.93-6.4l.45-2.77A30.42,30.42,0,0,0,71,94.49a32.43,32.43,0,0,0-1.2-5.17A31.61,31.61,0,0,0,9.26,90.56a12.82,12.82,0,0,0-.54,2c-.57,2.25-1.05,4.6-1.44,6.91H7.22A114.55,114.55,0,1,0,136.37,6.17Zm69.25,72.49c-5.6,2.09-8.29-3.34-8.29-3.34a79.4,79.4,0,0,0-6.67-10,85.62,85.62,0,0,0-15.53-15.77l-.12-.12c-.09-.09-.15-.12-.24-.21a6.61,6.61,0,0,1-1.68-2.32,6.32,6.32,0,0,1,3.48-8.23,6.4,6.4,0,0,1,6.24.83l.73.55a97.85,97.85,0,0,1,17.21,17.52v.06a94.2,94.2,0,0,1,7.79,11.75s.36.63.51,1A6,6,0,0,1,205.62,78.66Z"/></svg>