<svg xmlns="http://www.w3.org/2000/svg" viewBox="0 0 792 792"><defs><style>.cls-1{fill:#252525;}</style></defs><g id="Layer_3" data-name="Layer 3"><path class="cls-1" d="M640.48,403.87V158.07A96.56,96.56,0,0,0,544,61.62H304.85a96.54,96.54,0,0,0-96.4,96.45V303.29H95.17a87.48,87.48,0,0,0-87.36,87.4V617.84A87.46,87.46,0,0,0,95.17,705.2H322.36a87.46,87.46,0,0,0,87.36-87.36V525.17H483.3a147,147,0,0,0-2.23,25.06c0,81,65.93,147,147,147s147-65.93,147-147C775,473.41,715.71,410.21,640.48,403.87Zm-255.65,214a62.54,62.54,0,0,1-62.47,62.47H95.17A62.54,62.54,0,0,1,32.7,617.84V390.69a62.56,62.56,0,0,1,62.47-62.51H322.36a62.56,62.56,0,0,1,62.47,62.51V617.84ZM314.06,283.51c0-56.48,42.78-103.28,97.64-109.65L412.08,296H534.16a111.17,111.17,0,0,1-109.68,98,108.61,108.61,0,0,1-14.76-1v-2.23a87.33,87.33,0,0,0-87.36-87.4h-6.5A108.61,108.61,0,0,1,314.06,283.51ZM409.72,418a135.8,135.8,0,0,0,150-134.48V271.06H436.89l-.37-122.86-12.45,0c-74.38.23-134.89,60.91-134.89,135.27a133.4,133.4,0,0,0,1.51,19.78H233.34V158.07a71.62,71.62,0,0,1,71.51-71.56H544a71.64,71.64,0,0,1,71.56,71.56V403.83l-.38.05c-3.16.28-6.3.68-9.42,1.16l-1.11.16c-3.07.5-6.1,1.11-9.12,1.8l-1.58.37q-4.43,1.06-8.76,2.4l-1.53.48c-2.93.94-5.84,1.95-8.69,3.06l-1,.39q-4.29,1.71-8.47,3.68l-.56.25c-2.8,1.34-5.55,2.78-8.25,4.29-.44.25-.88.48-1.31.73q-3.9,2.22-7.65,4.68l-1.41.93c-2.48,1.67-4.93,3.4-7.31,5.21l-1.11.87c-2.47,1.92-4.9,3.89-7.24,6l-.23.21c-2.31,2-4.54,4.17-6.72,6.36-.31.31-.63.61-.93.92-2.1,2.15-4.12,4.36-6.09,6.64-.38.43-.76.87-1.13,1.31q-2.88,3.4-5.56,7l-1,1.32c-1.81,2.48-3.56,5-5.21,7.6l-.5.81q-2.43,3.87-4.62,7.9l-.45.8q-2.19,4.11-4.12,8.38c-.22.49-.45,1-.67,1.48q-1.84,4.19-3.44,8.51c-.09.26-.21.5-.3.75H409.72ZM628,672.31A122.15,122.15,0,0,1,510.77,516.19c15-51.81,63.22-88,117.26-88a122.06,122.06,0,1,1,0,244.12Zm87.12-157.4L608.46,621.61l-54-54L572.07,550l36.39,36.39,89.1-89.09ZM181.08,411.09H91.15V386.2h89.93ZM91.15,440.71H251.59V465.6H91.15Zm0,54.51H307.39v24.89H91.15Zm160.44,79.4H91.15V549.73H251.59ZM91.15,604.24H292.37v24.88H91.15ZM553.08,235.12a136.3,136.3,0,0,0-80.85-77.88l-16.68-5.93.3,100.86h104Zm-72.41-7.83-.12-39.07a111.39,111.39,0,0,1,40.84,39.07Z"/></g></svg>