<svg id="Layer_1" data-name="Layer 1" xmlns="http://www.w3.org/2000/svg" viewBox="0 0 1238.7 228.08"><defs><style>.cls-1{fill:#fff;}</style></defs><path class="cls-1" d="M58.34,39.55a5.79,5.79,0,0,0,1.45-.86v.05a98.83,98.83,0,0,1,23-13.26,101.31,101.31,0,0,1,25.52-6.89h.09a5.15,5.15,0,0,0,1.43-.39A6.34,6.34,0,0,0,106.78,6V6A113.92,113.92,0,0,0,78,13.73,112.75,112.75,0,0,0,52,28.61v0a6.3,6.3,0,0,0-2,7.43A6.43,6.43,0,0,0,58.34,39.55Z" transform="translate(-7.15 -5.96)"/><path class="cls-1" d="M105.53,71.05a6.41,6.41,0,0,1-1.82-12.55A63.34,63.34,0,0,1,127,56.11a6.41,6.41,0,0,1-1.08,12.77,50.55,50.55,0,0,0-18.58,1.9A6.1,6.1,0,0,1,105.53,71.05Z" transform="translate(-7.15 -5.96)"/><path class="cls-1" d="M138.08,6.17v0L136.69,6l0,.09a5.63,5.63,0,0,0-3.51.69,6.24,6.24,0,0,0-2.49,8.56A6.3,6.3,0,0,0,135,18.6v0a104.34,104.34,0,0,1,25,6.55,6.7,6.7,0,0,1,3.87,3.64,6.34,6.34,0,0,1-3.39,8.32,7.34,7.34,0,0,1-4.69.09c-7.21-2.64-14.72-5.08-22.41-6a87.65,87.65,0,0,0-23.28,0,88.76,88.76,0,0,0-22.47,6A6.36,6.36,0,0,0,92.5,48.92a76.68,76.68,0,0,1,19.23-5.14,74,74,0,0,1,20,.06A72.25,72.25,0,0,1,150.94,49l0-.06a80.38,80.38,0,0,1,17.27,10,68.86,68.86,0,0,1,8.23,7.42,12.59,12.59,0,0,1,1.68,2.74c1.36,3.24.09,7-3.21,8.11s-5.62-.81-7-1.84c-1.22-.95-3-2.42-4.45-3.72l-.69-.61c-.27-.23-.8-.65-.8-.65a64.31,64.31,0,0,0-8-5.68,6.41,6.41,0,1,0-6.54,11A50.63,50.63,0,0,1,156.84,83L158,84.06l1.63,1.59a50.86,50.86,0,1,1-88.79,33.84c0-1.38.06-2.74.18-4.09.06-.84.15-1.71.27-2.55.33-2.56.6-4.33.93-6.4l.45-2.77a30.1,30.1,0,0,0,.06-9.19,32.43,32.43,0,0,0-1.2-5.17A31.61,31.61,0,0,0,11,90.56a12.82,12.82,0,0,0-.54,2C9.86,94.85,9.37,97.2,9,99.51H8.92A114.55,114.55,0,1,0,138.08,6.17Zm69.25,72.49c-5.6,2.09-8.3-3.34-8.3-3.34a78.33,78.33,0,0,0-6.67-10,85.3,85.3,0,0,0-15.53-15.77l-.12-.12c-.09-.09-.15-.12-.24-.21a6.61,6.61,0,0,1-1.68-2.32,6.33,6.33,0,0,1,9.72-7.4l.73.55a98.24,98.24,0,0,1,17.22,17.52v.06a94.13,94.13,0,0,1,7.78,11.75s.36.63.51,1A6,6,0,0,1,207.33,78.66Z" transform="translate(-7.15 -5.96)"/><polygon class="cls-1" points="1215.96 46.22 1177.76 105.31 1139.7 46.22 1116.57 46.22 1167.97 122.7 1167.97 181.86 1187.14 181.86 1187.14 122.5 1238.7 46.22 1215.96 46.22"/><polygon class="cls-1" points="985.58 63.68 1031.4 63.68 1031.4 181.86 1050.57 181.86 1050.57 63.68 1096.4 63.68 1096.4 46.22 985.58 46.22 985.58 63.68"/><rect class="cls-1" x="935.06" y="46.22" width="19.17" height="135.63"/><polygon class="cls-1" points="837.77 157.26 793.84 46.22 772.67 46.22 828.06 181.86 846.87 181.86 902.46 46.22 881.71 46.22 837.77 157.26"/><polygon class="cls-1" points="698.27 46.22 642.88 181.86 664.05 181.86 707.98 70.83 751.91 181.86 772.67 181.86 717.08 46.22 698.27 46.22"/><path class="cls-1" d="M582.64,136.43c21-5,32.47-19.65,32.47-41.55,0-27.14-17.48-42.7-48-42.7h-61.8V187.82h19.16V138h37.82l36.54,49.84h23.36Zm-58.15-15.91V69.64h42.85c18.84,0,28.4,8.49,28.4,25.24,0,17-9.56,25.64-28.4,25.64Z" transform="translate(-7.15 -5.96)"/><path class="cls-1" d="M393.46,117.5h82v8.93c-3.29,38.35-32,64-71.34,64-44.95,0-71.81-35.81-71.81-70.43s26.86-70.43,71.81-70.43c32.35,0,57.75,16.9,68,45.21l1,2.79H452.31l-.58-1.22C442.87,77.44,425.94,67,404.07,67c-34.19,0-52.65,27.3-52.65,53,0,26.33,18.09,53,52.65,53,26.47,0,44.86-13.82,50.82-38H393.46Z" transform="translate(-7.15 -5.96)"/></svg>